<?xml version="1.0" encoding="utf-8"?>
<!-- Generator: Adobe Illustrator 18.1.1, SVG Export Plug-In . SVG Version: 6.00 Build 0)  -->
<svg version="1.1" id="Layer_1" xmlns="http://www.w3.org/2000/svg" xmlns:xlink="http://www.w3.org/1999/xlink" x="0px" y="0px"
	 viewBox="0 0 150 150" enable-background="new 0 0 150 150" xml:space="preserve">
<g>
	<g>
		<path d="M79.2,67.8c-5.8,0.3-7.1-6-3.8-9.9c4.3-5.1,12.4-3.6,17.2,0c11.3,8.6,8.6,24.6-2.2,32.2C79,98.1,64,93.5,55.5,83.7
			c-9.8-11.1-10.3-28.9-4-41.9c6.8-14,23.9-13.9,37.5-13.8c7.3,0.1,14.9,0.7,20.9,5.1c4.9,3.6,8.4,9.1,10.7,14.6
			c5.3,12.5,7.1,28.1,4.8,41.4c-2.6,15.3-12.1,26.3-27,30.8c-9.5,2.8-19.6,2.7-29.4,1.6c-8.4-1-16.3-2.1-23.6-6.5
			c-15.2-9-20.8-25.6-24.7-41.9c-2.3-9.4-16.7-5.4-14.5,4c5,20.9,13.4,39.9,32.5,51.3c9.3,5.6,19.7,6.9,30.4,8
			c11.6,1.3,23.7,1,34.9-2.6c21.8-7.1,34.6-24.9,36.9-47.3c1.9-18.3-1.5-40.3-12.4-55.5c-13.1-18.2-35.4-19.7-56.1-17.3
			c-9.8,1.2-19.6,4-26.8,11c-7.9,7.6-11.5,19.1-12.6,29.8c-2.4,21.5,8.4,43,28.8,51.4c18.4,7.6,40.3,0.7,49.5-17.5
			c10.6-20.9-3.7-49.5-28.7-48.9c-12.1,0.3-23.1,9.4-24,21.8c-0.8,11.5,9.1,22,20.7,21.4C88.8,82.2,88.8,67.2,79.2,67.8L79.2,67.8z"
			/>
	</g>
</g>
</svg>
