<?xml version="1.0" encoding="utf-8"?>
<!-- Generator: Adobe Illustrator 18.1.1, SVG Export Plug-In . SVG Version: 6.00 Build 0)  -->
<svg version="1.1" id="Layer_1" xmlns="http://www.w3.org/2000/svg" xmlns:xlink="http://www.w3.org/1999/xlink" x="0px" y="0px"
	 viewBox="0 0 784 784" enable-background="new 0 0 784 784" xml:space="preserve">
<g>
	<g>
		<g>
			<path fill="#70C27C" d="M86.4,447.8c1.7,17.1,4.7,34.1,9.3,50.8c0.7,2.9,1.6,5.7,2.4,8.5l2.6,8.4c1.8,5.6,3.9,11.1,6,16.7
				l3.4,8.2l1.7,4.1c0.6,1.4,1.2,2.7,1.8,4l3.8,8l1.9,4c0.7,1.3,1.4,2.6,2.1,3.9c11,20.9,24.2,40.7,39.5,58.9
				c22.8,26.9,49.9,50.5,80.5,68.9c15.3,9.3,31.3,17.4,48,24.1c16.7,6.7,34,12,51.6,16l8,1.7c2.7,0.6,5.4,1.1,8.1,1.5l8.1,1.3
				c2.7,0.4,5.4,0.8,8.1,1.1l8.2,0.9c2.7,0.3,5.5,0.6,8.2,0.7l8.2,0.5l4.1,0.2l2,0.1l0.3,0l0.1,0l3.4,0l0.1,0l0.3,0l0.6,0l5,0.1
				l2.5,0.1l1.2,0l0.6,0l1.2,0c3.3-0.1,6.6-0.2,9.9-0.4l4.9-0.3l2.5-0.1l1.2-0.1l0.6,0l0.5,0c5.5-0.5,11-1,16.5-1.6
				c5.5-0.8,10.9-1.6,16.4-2.5c21.8-3.8,43.4-9.9,64.1-18c20.8-8.1,40.7-18.3,59.5-30.4c41.1-26.5,76.7-61.9,103.3-103.7
				c13.3-20.9,24.4-43.3,33-66.8c8.6-23.5,14.7-48,18-72.8c0.8-6.3,1.4-12.5,2-18.8c0.2-3.1,0.4-6.3,0.6-9.4l0.2-4.7l0.1-2.4
				l0.1-1.2l0-0.6l0-0.1l0-3.8l0-0.2l0.1-5.5l0.1-2.8l0-1.4l0-0.3l0-0.2l0-0.4l0-1.4c-0.1-3.8-0.3-7.7-0.5-11.5l-0.3-5.7l-0.1-1.4
				l-0.1-1.4l-0.2-2.4c-2.1-25.3-7-50.6-14.7-75.2c-7.6-24.5-18-48.3-30.8-70.6c-12.9-22.3-28.2-43.2-45.6-62.3
				c-32.4-35.6-72.3-64.8-117-85c-22.3-10.1-45.8-17.9-69.8-23.2l-9-1.9c-3-0.6-6-1.2-9.1-1.7l-9.1-1.4c-3-0.5-6.1-0.9-9.1-1.2
				l-9.1-0.9c-3.1-0.3-6.1-0.6-9.2-0.7l-9.2-0.5l-4.6-0.2l-1.1,0l-0.1,0l-4.1,0.1l-0.1,0l-0.2,0l-0.3,0l-1.3,0l-4.4-0.1l-2.2,0
				l-1.1,0l-0.5,0l-0.3,0l-0.1,0l-0.1,0l-0.3,0c-6.4,0.2-12.8,0.5-19.1,0.9l-2.4,0.2l-0.6,0l-0.5,0l-1,0.1l-3.9,0.4l-7.8,0.8
				c-5.2,0.5-10.4,1.3-15.6,2.1c-20.8,3.3-41.4,8.4-61.5,15.2c-40.1,13.7-77.8,34.6-111,61.2c-23.7,19.1-45.2,41-63.6,65.5
				c-2.3,3.1-4.6,6.1-6.8,9.2c-2.2,3.2-4.3,6.3-6.5,9.5l-3.2,4.8l-3,4.9c-2,3.3-4,6.6-6,9.9c-7.6,13.4-14.7,27.2-20.6,41.5
				c-11.4,27-19.7,55.6-24.5,84.7l-0.6,3.8c-0.5,3.1-1,6.3-1.6,9.3c-0.6,3.1-1.1,6.1-1.7,9c-1.2,5.8-2.7,11.2-4.1,15.8
				c-2.9,9.1-6.5,15.2-10.8,14.5c-3.8-0.6-7.7-6.2-10.3-15.5c-1.4-4.6-2.1-10.2-2.4-16.5c-0.1-3.1-0.2-6.4,0-9.8
				c0.2-3.4,0.6-7,1.2-10.6c3.3-21.5,8.2-42.8,15-63.5c1.1-3.5,2.3-7,3.6-10.5c1.3-3.5,2.5-7,3.8-10.4c2.7-6.9,5.6-13.7,8.5-20.5
				c1.6-3.3,3.1-6.7,4.7-10l2.4-5c0.8-1.7,1.6-3.3,2.5-4.9c1.7-3.3,3.5-6.5,5.2-9.7l2.7-4.8c0.9-1.6,1.9-3.2,2.8-4.7
				c15-25.3,32.6-48.8,52.5-70.2c29.6-31.6,64.2-58.4,102.2-78.9c19-10.2,38.8-19,59.2-26c20.4-7,41.4-12.3,62.5-15.9l9.7-1.5
				c3.2-0.5,6.4-1,9.7-1.3l9.7-1l4.8-0.5l1.2-0.1l1.5-0.1l3-0.2c4-0.3,8-0.5,12-0.6l6-0.2l1.5,0l0.8,0l0.2,0l0.1,0l0.2,0l1.2,0
				l5,0.1l2.5,0.1l1.2,0l0.2,0l5-0.1l0.2,0l0.6,0l1.2,0c25.6,0.7,51.4,4,76.5,9.7c25.2,5.8,49.8,14.1,73.2,24.7
				c23.4,10.6,45.7,23.5,66.4,38.4c45.3,32.6,83.2,74.7,110.6,122.8c13.7,24.1,24.7,49.6,32.9,76c8.2,26.4,13.4,53.6,15.7,80.9
				l0.1,1.3l0.1,1.4l0.2,3.2l0.4,6.4c0.2,4.2,0.4,8.5,0.5,12.7l0,0.8l0,0.4l0,0.7l0,1.4l-0.1,2.8l-0.1,2.8l0,1.4l0,0.7l0,0.3l0,0.1
				c0.1,9,0,2.5,0.1,4.6l0,0.1l0,0.3c-0.3,6.8-0.6,13.7-1.1,20.5c-0.3,3.4-0.6,6.8-1,10.2c-0.4,3.4-0.7,6.8-1.2,10.2
				c-3.7,27.2-10.4,54.1-19.8,79.8c-9.5,25.7-21.8,50.4-36.5,73.2c-14.8,22.8-31.9,43.9-51.1,62.9c-35.7,35.4-78.5,63.3-125.2,81.6
				c-23.3,9.1-47.6,15.8-72.1,20l-9.2,1.4c-3.1,0.5-6.1,0.9-9.2,1.2l-9.2,0.9l-4.6,0.4l-1.2,0.1l-1.4,0.1l-2.8,0.2
				c-3.8,0.2-7.5,0.4-11.3,0.6l-5.6,0.2l-1.3,0l-0.6,0l-1.3,0l-5.1-0.1l-2.6-0.1l-0.6,0l-4.2,0l-0.1,0l-0.3,0l-0.6,0l-2.3-0.1
				c-41.6-1.4-83.3-10.2-122.1-25.6c-38.8-15.5-74.4-37.8-105.1-65.1c-21.9-19.6-41.5-41.7-57.9-66c-2-3-4.1-6.1-6.1-9.1
				c-1.9-3.1-3.8-6.2-5.7-9.4l-2.8-4.7l-2.6-4.8c-1.8-3.2-3.5-6.4-5.2-9.7c-6.5-13.1-12.6-26.4-17.5-40.2c-9.5-26-16-53.1-18.9-80.4
				l-0.4-3.5c-0.3-2.9-0.5-5.9-0.6-8.8l0-1.1l0-1.3c0-0.9,0-1.7,0-2.6c0-1.7,0.1-3.4,0.1-5.1c0.1-3.3,0.4-6.5,0.8-9.5
				c0.3-3.6,0.9-4.1,1.5-5.6c2.5-5,6-8.2,10.3-8c3.8,0.2,7.8,3,10.8,7.6c0.4,0.6,0.7,1.2,1.1,1.8l0.3,0.5c0,0.1,0.1,0.1,0.1,0.3
				l0.1,0.5c0.2,0.6,0.4,1.3,0.6,1.9c0.7,2.6,1.4,5.3,2,8.2c0.3,1.4,0.6,2.9,0.8,4.4c0.2,1.5,0.5,3,0.7,4.6
				C85.7,442.1,86.1,444.9,86.4,447.8z"/>
		</g>
		<g>
			<path fill="#70C27C" d="M53.6,370c0.2-3,0.5-6.1,1-9.2c2.9-18.6,7.2-37.1,13.2-55c0.9-3.1,2-6.1,3.1-9.1l3.3-9
				c2.3-6,4.9-11.8,7.5-17.7l4.1-8.6L88,257c0.7-1.4,1.4-2.9,2.2-4.3l4.6-8.4l2.3-4.2c0.8-1.4,1.6-2.7,2.4-4.1
				c13-21.9,28.4-42.2,45.7-60.6c25.8-27.3,55.7-50.4,88.7-67.9c16.5-8.8,33.6-16.3,51.2-22.3c17.7-6,35.7-10.5,54-13.5l8.3-1.3
				c2.8-0.4,5.6-0.8,8.3-1.1l8.4-0.8l4.2-0.4l1-0.1l1.2-0.1l2.5-0.2c3.4-0.2,6.7-0.4,10.1-0.5l5-0.2l1.3,0l0.6,0l0.2,0l0.1,0l0.2,0
				l1.2,0l5,0.1l2.5,0.1l1.2,0l0.2,0l3.6,0l0.1,0l0.5,0l1,0c22.1,0.7,44.3,3.6,66,8.6c21.7,5.1,42.8,12.3,63,21.5
				c20.1,9.2,39.3,20.4,57.1,33.2c38.9,28.2,71.4,64.6,94.7,106c11.6,20.7,21,42.7,28,65.4c6.9,22.7,11.3,46,13.2,69.4l0.1,1.1
				c0,0.4,0.1,0.7,0.1,1.2l0.2,2.6l0.3,5.3c0.2,3.5,0.3,7,0.4,10.5l0,0.7l0,0.4l0,0.7l0,1.4l-0.1,2.8l-0.1,2.8l0,1.4l0,0.7l0,0.3
				l0,0.1c0.1,6.2,0,1.8,0,3.2l0,0.1l0,0.3c-0.3,5.9-0.5,11.7-1,17.6l-0.9,8.8c-0.3,2.9-0.6,5.8-1.1,8.8
				c-3.2,23.3-9.1,46.3-17.3,68.3c-8.2,22-18.8,43-31.5,62.5c-12.7,19.5-27.5,37.5-44,53.6c-30.7,30.1-67.4,53.9-107.2,69.2
				c-19.9,7.7-40.6,13.3-61.5,16.8l-7.9,1.2c-2.6,0.4-5.2,0.8-7.9,1l-7.9,0.8l-3.9,0.4l-1,0.1l-1.2,0.1l-2.3,0.1
				c-3.1,0.2-6.2,0.3-9.3,0.4l-4.6,0.2l-1.1,0l-0.6,0l-1.3,0l-14-0.3c-35.5-1.3-70.9-9-103.8-22.3c-32.9-13.3-63.1-32.4-89.1-55.7
				c-18.5-16.7-35.1-35.6-48.9-56.2c-1.7-2.6-3.4-5.2-5.1-7.8l-4.8-8l-2.4-4l-2.2-4.1l-4.4-8.2c-5.5-11.1-10.5-22.4-14.6-34.1
				c-7.9-22-13.3-45-15.7-68.1l-0.3-3c-0.2-2.5-0.4-5-0.4-7.4l0-0.9l0-1.1c0-0.7,0-1.4,0-2.1c0-1.4,0.1-2.8,0.2-4.1
				c0.2-2.7,0.5-5.3,0.9-7.7c0.3-2.8,1-3.6,1.6-5c2.5-5,6-8.2,10.3-8c3.8,0.2,7.8,3,10.8,7.6c0.4,0.6,0.7,1.2,1.1,1.8l0.3,0.5
				c0,0.1,0.1,0.1,0.1,0.3l0.1,0.4c0.2,0.5,0.4,1,0.5,1.5c0.7,2,1.3,4.2,1.9,6.5c0.6,2.3,1,4.7,1.4,7.1c0.1,0.5,0.2,0.9,0.2,1.4
				c0.2,2.7,0.4,6.1,1.1,8.9c1.4,13.1,3.7,26.2,7.1,39c0.6,2.4,1.3,4.7,2,7.1l2.1,7c1.5,4.7,3.2,9.3,4.9,13.9l2.8,6.8l1.4,3.4
				c0.5,1.1,1,2.3,1.5,3.4l3.1,6.7l1.6,3.3l1.7,3.3c9,17.5,20,34.1,32.7,49.3c18.9,22.6,41.4,42.4,66.9,58
				c12.7,7.8,26.1,14.7,40,20.4c13.9,5.7,28.4,10.2,43.1,13.6l6.7,1.4c2.2,0.5,4.5,1,6.8,1.3l6.8,1.1c2.3,0.4,4.5,0.7,6.8,1l6.8,0.8
				c2.3,0.2,4.6,0.5,6.9,0.6l6.9,0.4l3.4,0.2l1.7,0.1l0.2,0l0.1,0l2,0l0.1,0l0.3,0l0.6,0l5,0.1l2.5,0.1l1.2,0l0.6,0l1,0l7.9-0.3
				l3.9-0.2l2-0.1l1-0.1l0.5,0l0.4,0c4.6-0.4,9.2-0.8,13.8-1.3c4.6-0.6,9.2-1.3,13.8-2c36.7-6.2,72.4-20,104-40.1
				c34.7-22.1,64.8-51.8,87.5-86.9c11.3-17.6,20.8-36.4,28.1-56.2c7.4-19.8,12.6-40.4,15.5-61.3c0.7-5.3,1.2-10.6,1.8-15.9
				c0.2-2.7,0.3-5.3,0.5-8l0.2-4l0.1-2l0.1-1l0-0.5l0-0.1l0-2.4l0-0.2l0.1-5.5l0.1-2.8l0-1.4l0-0.3l0-0.2l0-0.3l0-1.2
				c-0.1-3.1-0.2-6.2-0.4-9.3l-0.2-4.7c0-0.8-0.1-1.6-0.1-2.3l-0.2-2c-1.7-21.4-5.7-42.9-12.1-63.6c-6.4-20.8-15-40.9-25.8-59.9
				c-10.8-18.9-23.7-36.8-38.4-53c-27.4-30.3-61.2-55.3-99-72.6c-18.9-8.6-38.8-15.4-59.2-20l-7.7-1.6c-2.6-0.5-5.1-1.1-7.7-1.5
				l-7.7-1.2c-2.6-0.4-5.2-0.8-7.8-1.1l-7.8-0.8c-2.6-0.3-5.2-0.5-7.8-0.7l-7.8-0.4l-3.9-0.2l-1,0l-0.1,0l-2.8,0l-0.1,0l-0.2,0
				l-0.3,0l-1.3,0l-4.4-0.1l-2.2,0l-1.1,0l-0.5,0c-0.2,0-0.3,0-0.7,0c-5.2,0.1-10.4,0.4-15.7,0.7l-2,0.1l-0.5,0l-0.4,0l-0.8,0.1
				l-3.3,0.3l-6.7,0.6c-4.5,0.4-8.9,1.1-13.3,1.7c-17.7,2.7-35.3,7-52.5,12.7c-34.3,11.6-66.5,29.2-94.9,51.8
				c-20.3,16.2-38.8,34.9-54.6,55.8c-2,2.6-4,5.2-5.9,7.9l-5.6,8.1l-2.8,4.1l-2.6,4.2l-5.1,8.4c-6.5,11.4-12.7,23.2-17.8,35.4
				c-9.9,23.1-17.1,47.5-21.3,72.4l-0.5,3.2c-0.4,2.7-0.9,5.4-1.5,8c-0.5,2.6-1,5.2-1.6,7.7c-1.1,5-2.6,9.6-3.9,13.5
				c-2.8,7.8-6.5,13-10.8,12.5c-3.8-0.5-7.6-5.4-10.3-13.5c-1.4-4-2.2-8.9-2.6-14.3C53.6,375.8,53.5,373,53.6,370z"/>
		</g>
		<g>
			<path fill="#70C27C" d="M193.4,434c1,11.3,2.7,22.7,5.6,33.8c0.4,1.9,1,3.8,1.5,5.7l1.6,5.6c1.2,3.7,2.5,7.4,3.8,11.1l2.2,5.5
				l1.1,2.7c0.4,0.9,0.7,1.8,1.2,2.7l2.5,5.4l1.2,2.7l1.3,2.6c7.1,14.1,15.8,27.4,25.8,39.7c15,18.3,33,34.4,53.4,47
				c10.2,6.4,20.9,12,32,16.7c11.2,4.6,22.7,8.4,34.6,11.2l5.4,1.2c1.8,0.4,3.6,0.8,5.4,1.1l5.5,0.9c1.8,0.3,3.7,0.6,5.5,0.8
				l5.5,0.7c1.8,0.2,3.7,0.5,5.5,0.6l5.6,0.4l2.8,0.2l1.4,0.1l1.9,0l5,0.1l2.5,0.1l1.2,0l0.6,0l0.7,0c3.9-0.1,7.9-0.2,11.8-0.4
				l11.2-1l11.1-1.5c29.7-4.8,58.6-15.7,84.4-31.9c28.3-17.7,53-41.7,71.7-70.1c18.6-28.4,31.2-61.3,36.2-95.5
				c0.6-4.3,1.1-8.7,1.6-13c0.2-2.2,0.3-4.3,0.5-6.5l0.2-3.3l0.1-1.6l0-0.8l0-0.4l0-0.1l0-1.1l0-0.2l0.1-5.5l0.1-2.8
				c0-1,0.1-1.7,0-3l-0.2-7.1l-0.1-3.6c0-0.6,0-1.2-0.1-1.8l-0.1-1.6c-1.3-17.5-4.5-35.1-9.5-52.1c-5.1-17-12-33.6-20.8-49.2
				c-8.8-15.6-19.3-30.3-31.2-43.7c-22.3-25.1-50-45.8-81-60.3c-15.5-7.2-31.8-12.8-48.6-16.8l-6.3-1.4c-2.1-0.5-4.2-0.9-6.3-1.2
				l-6.4-1.1c-2.1-0.3-4.3-0.7-6.4-0.9l-6.4-0.7c-2.1-0.2-4.3-0.5-6.4-0.6l-6.5-0.4l-3.2-0.2l-0.8,0l-0.1,0l-1.4,0l-0.1,0l-0.2,0
				l-0.3,0l-1.3,0l-8.8-0.2c-4.1,0.1-8.1,0.3-12.2,0.5c-2.1,0.1-3.8,0.3-5.7,0.4l-5.5,0.5c-3.7,0.3-7.3,0.9-11,1.4
				c-14.7,2.1-29.2,5.6-43.4,10.2c-28.4,9.4-55.2,23.8-78.9,42.4c-16.9,13.4-32.4,28.7-45.6,46c-1.7,2.2-3.3,4.3-4.9,6.5l-4.7,6.7
				l-2.3,3.4l-2.2,3.5l-4.3,7c-5.5,9.5-10.6,19.2-14.9,29.3c-8.3,19.1-14.4,39.4-18,60.1l-0.4,2.7c-0.4,2.2-0.8,4.5-1.3,6.7
				c-0.5,2.2-0.9,4.3-1.5,6.4c-1.1,4.1-2.5,8-3.8,11.3c-2.8,6.5-6.4,10.9-10.7,10.4c-3.8-0.4-7.6-4.5-10.3-11.4
				c-1.4-3.4-2.2-7.5-2.7-12.2c-0.2-2.3-0.3-4.7-0.3-7.3c0.1-2.5,0.4-5.1,0.8-7.8c2.6-15.8,6.3-31.4,11.4-46.5
				c0.8-2.6,1.7-5.1,2.7-7.7l2.9-7.6c2-5,4.2-10,6.4-14.9l3.5-7.3l1.8-3.6c0.6-1.2,1.2-2.4,1.9-3.6l3.9-7.1l2-3.5
				c0.7-1.2,1.4-2.3,2.1-3.5c11.1-18.4,24.2-35.6,38.9-51c21.9-22.9,47.3-42.4,75.2-57c13.9-7.3,28.4-13.6,43.2-18.6
				c14.9-4.9,30.1-8.7,45.5-11.2l7-1c2.3-0.3,4.7-0.7,7-0.9l7-0.7l3.5-0.3l0.9-0.1l1-0.1l2-0.1c2.7-0.1,5.4-0.3,8.1-0.4l4-0.1l1,0
				c0.3,0,0.7,0,0.9,0l1.2,0l12.5,0.2c18.7,0.7,37.3,3.2,55.5,7.6c36.4,8.7,70.8,24.7,100.4,46.4c32.5,23.9,59.6,54.5,78.9,89.2
				c9.6,17.4,17.4,35.8,23,54.7c5.7,18.9,9.2,38.4,10.7,58c0,0.6,0.1,1.2,0.2,1.9l0.1,2.1l0.2,4.2l0.3,8.3l0,0.5l0,0.4l0,0.7l0,1.4
				l-0.1,2.8l-0.1,2.8l0,1.4l0,0.7l0,0.3l0,0.1c0,3.5,0,1,0,1.8l0,0.1l0,0.2c-0.3,4.9-0.5,9.8-0.9,14.7l-0.8,7.3
				c-0.3,2.4-0.5,4.9-0.9,7.3c-2.8,19.4-7.8,38.5-14.7,56.7c-6.9,18.2-15.8,35.7-26.5,51.8c-10.7,16.1-23,31-36.8,44.3
				c-25.6,24.9-56.2,44.4-89.2,56.9c-16.5,6.3-33.6,10.8-50.9,13.5l-6.5,0.9c-2.2,0.3-4.3,0.6-6.5,0.8l-6.5,0.6l-3.3,0.3l-0.8,0.1
				l-0.9,0l-1.8,0.1l-7.2,0.3l-3.6,0.1l-0.9,0l-0.6,0l-1.3,0l-5.1-0.1l-2.6-0.1l-0.6,0l0,0c0.3,0-2.6,0-1.4,0l-0.1,0l-0.2,0l-0.4,0
				l-1.6-0.1c-14.7-0.6-29.3-2.6-43.7-5.8c-14.3-3.2-28.4-7.6-41.9-13.1c-27-11.2-51.7-27-73-46.3c-15.2-13.9-28.7-29.4-39.9-46.5
				c-1.4-2.1-2.8-4.3-4.2-6.4l-3.9-6.6l-1.9-3.3l-1.8-3.4l-3.5-6.7c-4.4-9.1-8.5-18.4-11.8-28c-6.3-18.1-10.7-36.9-12.4-55.8
				l-0.2-2.5c-0.2-2-0.3-4.1-0.3-6.1c0-2.1,0.2-4.3,0.4-6.3c0.5-4.1,1.2-8.2,2.5-10.3c2.5-5,6-8.2,10.3-8c3.8,0.2,7.8,3,10.8,7.6
				c1.4,2.2,2.9,5.3,3.9,8.6c0.5,1.7,0.9,3.4,1.3,5.2C193,430.2,193.2,432,193.4,434z"/>
		</g>
		<g>
			<path fill="#70C27C" d="M246.9,427c0.6,8.5,1.8,17,3.8,25.3c0.3,1.4,0.7,2.8,1.1,4.2l1.2,4.2c0.8,2.8,1.8,5.6,2.7,8.4l1.6,4.1
				l0.8,2.1c0.3,0.7,0.5,1.4,0.8,2l1.8,4l0.9,2l1,2c5.2,10.6,11.6,20.8,19,30.2c11.2,13.9,24.6,26.3,39.9,36.1
				c7.6,4.9,15.6,9.3,24,12.9c8.4,3.6,17.1,6.6,26.1,8.8l4.1,1c1.4,0.3,2.7,0.7,4.1,0.9l4.2,0.8c1.4,0.3,2.8,0.5,4.2,0.7l4.2,0.5
				c1.4,0.2,2.8,0.4,4.2,0.5l7.9,0.6l5,0.1l2.5,0.1l1.2,0l0.6,0l0.5,0l7.9-0.2l8.5-0.6l8.5-1.1c22.7-3.4,44.8-11.4,64.8-23.6
				c21.9-13.4,41.2-31.6,55.8-53.4c14.6-21.8,24.6-46.9,28.8-73.4c0.5-3.3,0.9-6.7,1.3-10.1c0.2-1.7,0.3-3.4,0.4-5.1l0.2-2.5
				l0.1-1.3l0-0.6l0-0.3l0-0.1c0,0.7,0,0.2,0,0.3l0,0l0-0.2l0.1-5.5l0.1-2.8c0-0.9,0.1-1.9,0-2.7l-0.1-4.9c-0.1-1.7,0-3.3-0.2-5
				c-0.8-13.6-3.2-27.3-7-40.5c-3.8-13.3-9.1-26.2-15.8-38.5c-6.7-12.2-14.8-23.8-24.1-34.5c-17.3-19.8-38.8-36.4-63.1-47.9
				c-24.2-11.6-51.1-18.1-78.4-19.1c-11.6-0.5-23.3,0.2-34.9,1.7c-11.6,1.6-23.1,4.2-34.4,7.7c-22.5,7.2-43.8,18.5-62.8,33.1
				c-13.5,10.5-26,22.6-36.7,36.3c-1.3,1.7-2.7,3.4-4,5.1l-3.8,5.3l-1.9,2.7l-1.8,2.8l-3.5,5.5c-4.4,7.5-8.6,15.2-12.1,23.3
				c-6.8,15.2-11.8,31.3-14.8,47.8l-0.4,2.1c-0.3,1.8-0.7,3.6-1.1,5.3c-0.4,1.7-0.8,3.5-1.4,5.1c-1,3.3-2.4,6.4-3.7,9
				c-2.7,5.2-6.4,8.8-10.7,8.4c-3.8-0.3-7.6-3.7-10.4-9.3c-1.4-2.8-2.3-6.2-2.8-10c-0.2-1.9-0.4-3.9-0.4-6c0.1-2.1,0.3-4.2,0.7-6.4
				c2.2-12.9,5.3-25.7,9.6-38c0.7-2.1,1.5-4.2,2.2-6.3l2.4-6.2c1.7-4.1,3.5-8.1,5.3-12.2l2.9-5.9l1.5-3c0.5-1,1-2,1.5-2.9l3.2-5.8
				l1.6-2.9l1.7-2.8c9.2-15,20-28.9,32-41.5c35.9-37.3,83.8-62.2,133.9-69.6l5.7-0.8c1.9-0.3,3.8-0.5,5.7-0.7l5.7-0.5
				c1.9-0.2,3.8-0.3,5.9-0.4l6.1-0.2l3-0.1c0.5,0,1.1,0,1.5,0l1.2,0l5,0.1l2.5,0.1l1.2,0l0.2,0l0,0c1.5,0,0.4,0,0.8,0l0.1,0l0.4,0
				l0.7,0c15.2,0.7,30.3,2.8,44.9,6.5c29.4,7.2,57,20.4,80.8,38.1c26.1,19.5,47.7,44.4,63,72.5c15.3,28.1,24.3,59.3,26.3,90.6
				c2.1,31.6-2.9,63.4-14.2,92.4c-5.7,14.5-12.9,28.3-21.4,41.1c-8.6,12.8-18.6,24.5-29.6,35.1c-20.6,19.6-45,34.9-71.3,44.5
				c-26.2,9.7-54.2,13.7-81.6,12.2c-11.6-0.6-23.2-2.3-34.4-4.9c-11.3-2.6-22.2-6.2-32.8-10.6c-21.1-9-40.4-21.6-56.9-37
				c-11.8-11-22.3-23.3-30.9-36.8c-1.1-1.7-2.2-3.3-3.2-5l-3-5.2l-1.5-2.6l-1.4-2.7l-2.7-5.3c-3.3-7.2-6.5-14.4-8.9-21.9
				c-4.8-14.1-8-28.8-9.2-43.5l-0.1-1.9c-0.1-1.6-0.2-3.2-0.1-4.8c0.1-1.6,0.3-3,0.6-4.5c0.6-2.9,1.3-5.3,2.6-8c2.5-5,6-8.2,10.3-8
				c3.8,0.2,7.8,3,10.8,7.6c0.8,1.1,1.4,2.6,2.1,3.4c0.7,0.9,1.2,1.9,1.7,3c0.5,1.1,0.8,2.1,1.1,3.3
				C246.6,424.2,246.8,425.6,246.9,427z"/>
		</g>
		<g>
			<path fill="#70C27C" d="M300.5,420.1c0.3,5.6,0.8,11.2,2,16.8c0.1,1,0.4,1.9,0.6,2.8c0.2,0.9,0.5,1.9,0.7,2.8
				c0.5,1.9,1.1,3.7,1.6,5.6c0.3,0.9,0.7,1.8,1,2.7l0.5,1.4c0.1,0.5,0.3,0.9,0.5,1.4c0.4,0.9,0.8,1.8,1.1,2.7l0.5,1.4
				c0.2,0.4,0.4,0.9,0.6,1.3c3.3,7.2,7.4,14.1,12.2,20.6c7.3,9.6,16.1,18.3,26.3,25.1c5.1,3.5,10.4,6.6,16.1,9.2
				c5.6,2.6,11.5,4.7,17.6,6.5l2.8,0.7c0.9,0.3,1.9,0.5,2.8,0.7l2.8,0.6c0.9,0.2,1.9,0.4,2.9,0.5l2.9,0.4c1,0.1,1.9,0.4,2.9,0.4
				l2.9,0.3l1.5,0.2l0.7,0.1l0.1,0l0,0c-4.2,0.1-1.1,0-2.1,0l0.1,0l0.3,0l0.6,0l9.6,0.2c0.6,0,1.3,0,1.9,0l1,0l0.5,0l0.2,0l0.1,0
				l0.2,0c2-0.1,3.9-0.2,5.9-0.3c1.9-0.2,3.9-0.4,5.9-0.6c15.6-1.9,31.1-7.1,45.2-15.3c15.5-9,29.3-21.5,40-36.6
				c10.6-15.1,18-32.6,21.4-51.3c0.4-2.4,0.7-4.8,1.1-7.2c0.1-1.2,0.2-2.4,0.3-3.6l0.2-1.8l0.1-0.9l0-0.5l0-0.2l0-0.1
				c0,3.5,0,0.9,0,1.7l0,0l0-0.2l0.1-5.5l0.1-2.8l0-1.4l0-0.3l0-0.2l0-0.1l0-0.3c0-0.9,0-1.8,0-2.7l0-1.4c0-0.2,0-0.4,0-0.7
				l-0.1-0.9c-0.4-9.8-1.9-19.5-4.4-29c-2.5-9.5-6.1-18.9-10.7-27.8c-4.7-8.9-10.4-17.4-16.9-25.2c-12.3-14.6-27.7-26.9-45.1-35.6
				c-8.7-4.3-17.9-7.8-27.5-10.3l-3.6-0.9c-1.2-0.3-2.4-0.6-3.6-0.8l-3.7-0.7c-1.2-0.2-2.4-0.5-3.7-0.6l-3.7-0.5
				c-1.2-0.2-2.5-0.4-3.7-0.5l-3.8-0.3l-1.9-0.2l-0.5,0l0,0c-0.3,0,2.6,0,1.3,0l-0.1,0l-0.2,0l-0.3,0l-1.3,0l-8.6-0.2
				c-1.7,0.1-3.5,0.1-5.3,0.1c-0.8-0.1-2,0.1-3,0.1l-3.2,0.2c-2.2,0.1-4.3,0.4-6.4,0.6c-8.5,1-17,2.8-25.3,5.2
				c-16.6,5-32.5,13.1-46.8,23.7c-10.2,7.6-19.6,16.5-27.7,26.6l-3,3.8l-2.8,3.9l-1.4,2l-1.3,2l-2.7,4.1c-3.3,5.6-6.6,11.2-9.2,17.2
				c-5.2,11.2-9.1,23.2-11.6,35.5l-0.3,1.6c-0.2,1.3-0.6,2.7-1,4c-0.4,1.3-0.7,2.6-1.2,3.8c-0.9,2.5-2.3,4.8-3.5,6.7
				c-2.7,3.9-6.4,6.6-10.6,6.4c-3.8-0.3-7.6-2.8-10.4-7.3c-1.4-2.2-2.4-4.9-2.9-7.8c-0.3-1.5-0.5-3.1-0.5-4.7c0-1.6,0.2-3.3,0.5-5
				c1.8-10,4.3-20,7.8-29.5c0.5-1.6,1.2-3.2,1.8-4.8l1.9-4.8c1.3-3.2,2.8-6.3,4.2-9.4l2.4-4.6l1.2-2.3c0.4-0.8,0.8-1.5,1.2-2.3
				l2.6-4.4l1.3-2.2l1.4-2.2c7.3-11.6,15.7-22.3,25.2-31.9c14.2-14.3,30.4-26.3,48.1-35.1c8.8-4.4,17.9-8.2,27.3-11.1
				c9.4-2.9,18.9-5,28.5-6.4l4.4-0.5c1.5-0.2,2.9-0.4,4.4-0.5l4.4-0.3c1.5-0.1,3-0.3,4.3-0.2l4.1-0.1l2-0.1c0.4,0,0.6,0,1.1,0l1.2,0
				l5,0.1l2.5,0.1l1.2,0l0.2,0l0,0c-1.2,0-0.3,0-0.6,0l0.1,0l0.3,0l0.5,0c11.7,0.7,23.2,2.5,34.4,5.4c22.4,5.8,43.3,16.1,61.2,29.9
				c19.7,15.1,35.9,34.3,47.2,55.7c11.3,21.4,17.7,45,18.9,68.6c0,0.4,0.1,0.8,0.1,1.1l0,1l0,2l0.1,3.9l0,0.2l0,0.3l0,0.7l0,1.4
				l-0.1,2.8l-0.1,2.8l0,1.4l0,0.7l0,0.3l0,0.1c0-2,0-0.5,0-1l0,0l0,0.1c-0.3,3-0.5,5.9-0.8,8.9l-0.6,4.4c-0.2,1.5-0.3,2.9-0.6,4.4
				c-2,11.6-5.2,22.9-9.6,33.7c-4.4,10.7-9.9,21-16.4,30.4c-6.6,9.4-14.1,18.1-22.5,25.8c-15.6,14.4-33.8,25.4-53.3,32.2
				c-9.7,3.4-19.7,5.8-29.8,7.1l-3.8,0.4c-1.3,0.1-2.5,0.3-3.8,0.4l-3.8,0.2l-1.9,0.1l-0.5,0l-0.4,0l-0.8,0c-1,0-2.1,0-3.1,0l-1.6,0
				l-0.4,0l-0.6,0l-1.3,0l-5.1-0.1l-2.6-0.1l-0.6,0l0,0c-0.3,0,2.5,0,1.3,0l-0.1,0l-0.1,0l-0.2,0l-0.9-0.1c-8.6-0.5-17-2-25.2-4
				c-8.2-2-16.1-4.8-23.8-8.1c-15.2-6.8-29.1-16.3-40.9-27.6c-8.4-8.2-15.9-17.2-21.9-27l-2.3-3.7l-2.1-3.8l-1-1.9l-0.9-1.9
				l-1.9-3.8c-2.3-5.2-4.5-10.5-6.1-15.9c-3.2-10.2-5.4-20.6-6-31.2l-0.1-1.4c-0.1-1.1-0.1-2.3,0-3.4c0-0.3,0.1-0.5,0.1-0.7l0.2-0.6
				c0.1-0.4,0.3-0.8,0.4-1.2c0.7-1.7,1.5-2.5,2.7-5.6c2.5-5,6-8.2,10.3-8c3.8,0.2,7.8,3,10.8,7.6c0.4,0.6,0.7,1.2,1.1,1.8l0.3,0.5
				c0,0.1,0.1,0.2,0.1,0.2l0.1,0.1l0.5,0.3c0.6,0.4,1.2,0.8,1.6,1.2c0.2,0.2,0.4,0.4,0.6,0.6c0.1,0.1,0.1,0.2,0.2,0.3l0.1,0.2
				c0,0,0.1,0.1,0.1,0.2C300.2,418.2,300.4,419.1,300.5,420.1z"/>
		</g>
		<g>
			<path fill="#70C27C" d="M268.7,388.6c1.5-7.2,3.3-14.2,6-21c0.4-1.2,0.9-2.3,1.4-3.4l1.4-3.4c1-2.2,2.1-4.4,3.1-6.6l1.8-3.2
				l0.9-1.6c0.3-0.5,0.6-1.1,0.9-1.6l1.9-3.1l0.9-1.6c0.3-0.5,0.7-1,1-1.5c5.3-8.1,11.5-15.6,18.4-22.3c10.3-9.9,22-18.2,34.6-24.1
				c6.3-3,12.7-5.5,19.3-7.4c6.6-1.9,13.3-3.2,20-4l3.1-0.3c1-0.1,2-0.2,3.1-0.3l3.1-0.2l1.5-0.1l0.4,0c0.1,0,0.2,0,0.3,0l0.5,0
				c0.7,0,1.4,0.1,2.1,0.1l1.1,0l0.3,0c0.1,0,0.1,0,0.4,0l1.2,0l5,0.1l2.5,0.1l1.2,0l0.2,0l0,0c-4,0.1-1.1,0-2,0l0,0l0.2,0l0.4,0
				c8.2,0.6,16.2,2.1,23.9,4.3c15.3,4.4,29.5,11.8,41.6,21.6c13.2,10.7,24.1,24.2,31.4,38.9c7.3,14.8,11.1,30.6,11.5,46.5
				c0,0.2,0,0.6,0,0.7l0,0.4l-0.1,0.9c0,0.6,0,1.2,0,1.7l-0.1,5.2l-0.1,2.8l0,1.4l0,0.7l0,0.3l0,0.1c-0.1-4.7,0-1.3,0-2.3l0,0l0,0.1
				c-0.3,2-0.4,4-0.7,6l-0.5,2.9c-0.2,1-0.2,2-0.5,2.9c-1.5,7.7-3.9,15.1-7,22.1c-3.1,7-6.9,13.6-11.4,19.7
				c-4.5,6.1-9.7,11.6-15.3,16.5c-10.5,9.1-22.7,15.9-35.3,19.9c-6.3,2-12.8,3.2-19.2,3.9c-0.8,0.1-1.6,0.1-2.4,0.2
				c-0.8,0.1-1.6,0.2-2.4,0.2c-0.8,0-1.6,0-2.4,0.1l-1.2,0.1c-0.1,0-0.2,0-0.3,0l-0.1,0l-0.3-0.1c-0.4-0.1-0.7-0.1-1.1-0.1l-2.6,0
				l-5.1-0.1l-2.6-0.1l-0.6,0l0,0c-0.6,0,5.1-0.1,2.7,0l0,0l-0.1,0l-0.2,0l-0.6-0.1c-5.5-0.5-10.8-1.7-16-3.1
				c-5.1-1.5-10-3.4-14.7-5.7c-9.3-4.6-17.7-10.9-24.8-18.2c-5-5.3-9.5-11.1-12.9-17.3l-1.3-2.3c-0.4-0.8-0.8-1.6-1.2-2.4l-0.6-1.2
				l-0.5-1.2c-0.3-0.8-0.7-1.6-1.1-2.4c-1.2-3.3-2.5-6.5-3.3-9.8c-1.7-6.2-2.7-12.5-2.7-18.9l0-0.8c0-0.7,0.1-1.4,0.2-2.1
				c0-0.1,0-0.2,0.1-0.2l0.1-0.1l0.2-0.1c0.2-0.1,0.3-0.2,0.5-0.3c0.4-0.2,0.8-0.3,1.2-0.5c0.4,0.4,1-1.7,1.6-2.8
				c2.5-5,6-8.2,10.3-8c3.8,0.2,7.8,3,10.8,7.6c0.4,0.6,0.7,1.2,1.1,1.8l0.3,0.5c0,0.1,0.1,0.2,0.1,0.2l0.1,0l0.5-0.1
				c0.6-0.2,1.1-0.3,1.5-0.5c0.2-0.1,0.4-0.2,0.5-0.3c0.1,0,0.1-0.1,0.2-0.1c0,0,0,0,0,0c-0.2,2.8,0.1,5.7,0.5,8.5
				c0.1,0.8,0.2,1.6,0.4,2.5c0.1,0.4,0.1,0.8,0.2,1.3c0.2,0.9,0.4,1.9,0.5,2.8c0.1,0.5,0.3,0.9,0.4,1.4l0.2,0.7
				c0,0.2,0.1,0.5,0.2,0.7c0.2,0.5,0.3,0.9,0.5,1.4l0.2,0.7c0.1,0.2,0.2,0.5,0.3,0.7c1.3,3.7,3.1,7.5,5.4,11
				c3.4,5.2,7.7,10.2,12.8,14.2c2.5,2,5.2,3.9,8.1,5.5c2.9,1.6,5.9,2.9,9.1,4.1c0.5,0.1,1,0.3,1.5,0.5c0.5,0.2,1,0.4,1.5,0.5
				c0.5,0.1,1,0.3,1.5,0.4c0.5,0.1,1,0.3,1.5,0.4c0.5,0.1,1,0.2,1.6,0.3c0.5,0.1,1,0.3,1.6,0.3c0.5,0.1,1.1,0.2,1.6,0.3l0.8,0.2
				l0.4,0.1l0.1,0l0,0c-6.9,0.1-1.9,0-3.4,0l0.1,0l0.3,0l0.6,0l5.8,0.1c1.1,0.2,2.2,0.2,3.4,0.2c0,0,0.1,0,0.1,0c0,0,0,0,0,0.1
				l0,0.1l0,0l0,0l0.1,0c1.1,0,2.2,0,3.3,0.1c1.1-0.1,2.1-0.1,3.2-0.1c8.6-0.5,17.3-2.8,25.6-7c9-4.6,17.5-11.4,24.1-19.8
				c6.6-8.5,11.4-18.3,14-29.3c0.3-1.4,0.5-2.8,0.9-4.2l0.3-2.2l0.2-1.1l0.1-0.5l0-0.3l0-0.1l0,0c0.1,6.2,0,1.7,0,3.1l0,0l0-0.2
				l0.1-3.6c0-0.2,0.1-0.4,0.1-0.6c0.3-2.3,0.5-4.3,0.1-6.6c0-0.1,0.1-0.2,0.1-0.2l0-0.1c0,0,0,0,0-0.1l0-0.5
				c0-5.9-0.6-11.7-1.8-17.5c-1.3-5.8-3.1-11.5-5.7-17.1c-2.6-5.5-5.9-10.9-9.8-15.9c-7.2-9.3-16.5-17.4-27.1-23.2
				c-5.3-2.9-11-5.3-16.9-7.1c-0.7-0.2-1.5-0.4-2.2-0.6c-0.7-0.2-1.5-0.5-2.3-0.6c-0.8-0.2-1.5-0.3-2.3-0.5
				c-0.8-0.2-1.5-0.4-2.3-0.5c-0.8-0.1-1.6-0.3-2.3-0.4c-0.8-0.2-1.6-0.3-2.4-0.4c-0.8-0.1-1.6-0.2-2.4-0.3l-1.2-0.2l-0.3,0l0,0
				c-0.6,0,5.2-0.1,2.7,0l-0.1,0l-0.2,0l-0.3,0l-1.3,0l-8.6-0.2c-0.6,0-1.2,0-1.8-0.1l-0.2,0c0,0-0.1,0-0.2,0l-0.3,0l-1,0l-2.1,0.1
				c-1.4,0-2.7,0.2-4.1,0.3c-5.5,0.5-10.9,1.4-16.3,2.8c-10.7,2.8-21.2,7.7-30.7,14.3c-6.8,4.8-13.2,10.4-18.7,16.8l-2.1,2.4
				c-0.6,0.8-1.3,1.7-1.9,2.5l-1,1.2l-0.9,1.3c-0.6,0.9-1.2,1.7-1.9,2.6c-2.3,3.6-4.6,7.2-6.4,11.1c-3.6,7.3-6.5,15-8.3,23.2
				l-0.2,1.1c-0.2,0.9-0.5,1.8-0.8,2.6c-0.3,0.9-0.7,1.7-1.1,2.5c-0.9,1.6-2.1,3.1-3.4,4.5c-2.6,2.6-6.3,4.5-10.6,4.3
				c-3.8-0.2-7.6-2-10.5-5.2c-1.5-1.6-2.4-3.5-3.1-5.7c-0.3-1.1-0.5-2.2-0.6-3.4C268.3,391,268.5,389.8,268.7,388.6z"/>
		</g>
		<g>
			<path fill="#70C27C" d="M322.3,396.8c0-0.1,0-0.1,0-0.2c0-0.2,0.1-0.5,0.1-0.7c0-0.1,0-0.2,0-0.2c0.1-0.7,0.2-1.4,0.3-2.2
				c1-3.6,2.1-7.1,3.6-10.4c0.2-0.7,0.6-1.3,0.9-2c0.3-0.7,0.6-1.3,0.9-2c0.7-1.3,1.4-2.6,2-3.9c0.4-0.6,0.8-1.2,1.2-1.9l0.5-0.9
				c0.2-0.3,0.4-0.6,0.6-0.9c0.4-0.6,0.8-1.2,1.2-1.8l0.6-0.9c0.2-0.3,0.5-0.6,0.7-0.9c3.4-4.7,7.3-9,11.6-12.8
				c6.4-5.6,13.5-10.2,21-13.2c3.7-1.5,7.5-2.8,11.3-3.7c3.8-0.8,7.7-1.4,11.5-1.6c0.6,0,1.2,0,1.8-0.1c0.6,0,1.2-0.1,1.8-0.1
				c0.6,0,1.2,0,1.8,0l0.9,0l0.2,0c0.1,0,0,0,0,0l0,0.1c0.1,0.1,0.1,0.2,0.1,0.2c0,0,0,0,0.1,0l1.5,0l5,0.1l2.5,0.1l1.2,0l0.2,0l0,0
				c-6.7,0.1-1.8,0-3.3,0l0,0l0.1,0l0.2,0c4.7,0.6,9.2,1.7,13.3,3.2c8.3,3,15.8,7.5,22,13.3c6.8,6.4,12.2,14.1,15.5,22.1
				c3.2,8.1,4.5,16.3,4.1,24.4l0,0.2c0,0.1,0,0.1,0,0.1l-0.1-0.1c-0.1-0.1-0.1-0.1-0.2-0.2c-0.1-0.1-0.1-0.3-0.1-0.4l-0.1,5.1l0,2.2
				c0,0.2-0.1,0.4-0.1,0.5c0-3.5,0,0.2,0-1.2l0,0l0,0c-0.3,1-0.4,2.1-0.6,3.1c-0.2,0.5-0.3,1-0.4,1.5c-0.1,0.5-0.2,1-0.4,1.5
				c-1.1,3.8-2.6,7.3-4.4,10.6c-1.8,3.2-3.9,6.3-6.4,9c-2.5,2.7-5.2,5.1-8.2,7.2c-5.5,3.9-11.5,6.4-17.3,7.5
				c-2.9,0.5-5.8,0.7-8.7,0.6c-0.4,0-0.7-0.1-1.1-0.1c-0.4,0-0.7,0-1.1-0.1c-0.4-0.1-0.7-0.1-1.1-0.1l-0.5,0c0,0-0.1,0-0.1,0
				l0.1-0.1l0.2-0.1c0.3-0.1,0.6-0.2,1-0.3c0.2,0,0.3,0,0.5,0l0.1,0l0,0c0,0,0,0,0,0l-0.6,0l-1.3,0l-4.2-0.1c-0.1,0-0.2-0.1-0.3-0.1
				c1.1,0,1.6,0,0.1,0l0,0l0,0l-0.1,0l-0.3-0.1c0,0,0,0,0,0c-0.5-0.2-1.1-0.3-1.6-0.4c-1.8-0.5-3.5-1.2-5.1-1.9
				c-2-0.9-3.9-2-5.6-3.2c-3.5-2.4-6.4-5.5-8.8-8.8c-1.6-2.5-3.1-5-3.9-7.6c-0.1-0.3-0.2-0.6-0.4-0.9c-0.1-0.3-0.1-0.7-0.2-1
				c-0.1-0.2-0.1-0.3-0.2-0.5c0-0.2,0-0.3-0.1-0.5c-0.1-0.3-0.1-0.6-0.2-0.9c-0.1-1.3-0.5-2.5-0.4-3.7c-0.1-2.3-0.1-4.4,0.5-6.6
				c0-0.1,0.1-0.2,0.1-0.3c0.1-0.2,0.2-0.5,0.3-0.7c0,0,0-0.1,0.1-0.1l0.1,0.2l0.3,0.3c0.2,0.2,0.4,0.5,0.6,0.7
				c0.4,0.5,0.8,0.9,1.3,1.3c0.5,1.2,1-1.2,1.6-2.2c2.5-5,6-8.2,10.3-8c3.5,0.2,7.1,2.5,10,6.4c-0.4,0.9-0.7,2-0.7,3
				c0,0.5,0,1.2,0.1,1.8c0.1,0.5,0.3,1.1,0.6,1.7c0.1,0.1,0.1,0.1,0.1,0.2c0,0.1,0.1,0.2,0.2,0.3c0.1,0.1,0.1,0.1,0.2,0.2
				c0.1,0.1,0.1,0.2,0.2,0.3c0.1,0.1,0.2,0.1,0.2,0.2c0.1,0.1,0.2,0.3,0.3,0.3c0.1,0.1,0.2,0.1,0.3,0.2c0.1,0,0.1,0.1,0.2,0.1
				l0.1,0.1l0,0l0,0c-9.7,0.1-2.7,0-4.8,0.1l0.1,0l0.3,0l0.6,0l4.7,0.1c0.2,0.2,0.4,0.4,0.7,0.6l-0.1,0l-0.1,0l0,0
				c0.2,0.1,0.4,0.2,0.6,0.4c0.2,0,0.4,0.2,0.6,0.4c1.6,0.9,3.6,1.5,6,1.3c2.6-0.2,5.7-1.3,8.3-3c2.5-1.8,4.8-3.9,6.6-7.2
				c0.2-0.4,0.3-0.9,0.6-1.3c0-0.1,0.1-0.2,0.1-0.4c0.1-0.1,0.2-0.2,0.2-0.4c0.1-0.1,0.1-0.3,0.2-0.4c0.1,8.4,0,2.2,0.1,4.1l0,0
				l0-0.2l0.1-4.2c0.3-0.7,0.5-1.4,0.5-2.1c0.2-0.7,0.4-1.4,0.4-2.1c0,0,0,0,0,0c0.3-1.6,0.5-3.1,0.5-4.8c0-2-0.2-4.2-0.7-6.4
				c-0.6-2.2-1.5-4.4-2.6-6.6c-2.2-4.1-5.3-7.9-9.2-10.9c-1.9-1.5-4-2.8-6.3-3.9c-0.3-0.1-0.6-0.2-0.9-0.4c-0.3-0.1-0.6-0.3-0.9-0.4
				c-0.3-0.1-0.6-0.2-0.9-0.3c-0.3-0.1-0.6-0.3-1-0.4c-0.3-0.1-0.7-0.2-1-0.3c-0.3-0.1-0.7-0.3-1-0.3c-0.3-0.1-0.7-0.1-1.1-0.3
				l-0.5-0.2l-0.1,0l0,0c-0.9,0,7.8-0.1,4.1-0.1l-0.1,0l-0.2,0l-0.3,0l-1.3,0l-3.7-0.1c-0.7-0.2-1.4-0.3-2.2-0.3
				c-0.3-0.1-0.6-0.1-1-0.2c0,0,0,0,0.1,0l0.2-0.1c0,0,0,0,0,0l-0.1,0l-0.1,0l-0.4,0c-0.3,0-0.6,0-0.9-0.1c-0.6-0.1-1.2-0.1-1.8-0.1
				c-2.4-0.1-4.8,0-7.2,0.3c-4.8,0.7-9.8,2.3-14.7,4.9c-3.4,1.9-6.8,4.2-9.7,7.1c-0.4,0.4-0.8,0.7-1.1,1c-0.3,0.4-0.7,0.8-1,1.1
				l-0.6,0.5c-0.1,0.2-0.3,0.4-0.5,0.6c-0.3,0.4-0.7,0.8-1,1.2c-1.2,1.6-2.6,3.2-3.6,5c-2.1,3.3-3.8,6.9-5.1,10.9l-0.1,0.5
				c-0.1,0.4-0.4,0.9-0.7,1.3c-0.3,0.4-0.6,0.8-1,1.2c-0.8,0.8-2,1.5-3.3,2.2c-2.6,1.3-6.3,2.4-10.6,2.3c-3.8-0.1-7.6-1.1-10.5-3.1
				c-1.5-1-2.5-2.2-3.2-3.5c-0.3-0.5-0.5-1.1-0.6-1.6c0,0,0,0,0,0L322.3,396.8z"/>
		</g>
	</g>
	<path fill="#70C27C" d="M355,425.3c0,0-6.3-17.9,5.8-42.5c12.1-24.6-19.7-19.7-25.1-14.8c-21,19.7-14.8,65.8-5.4,78.9
		C354.5,480.8,355,425.3,355,425.3z"/>
	<path fill="#70C27C" d="M306.2,370.7c-7.6,23.3-10.7,42.1,1.8,82.8c9.3,30.3-28.6,7.6-28.6,7.6s-27.3-58.8,0-103
		S308.5,363.7,306.2,370.7z"/>
	<g>
		<path fill="#70C27C" d="M385.3,392.3c2.5-1.6,5.5-2.1,8.3-1.6c3.8-1.1,7.8,0.5,9.7,4.1c1.5,2.9,1.4,6.7,1.1,10.2
			c0,0.1,0,0.1,0,0.2c-0.1,0.2-0.1,0.3-0.2,0.5c-0.1,0.4-0.1,0.8-0.1,1.2c-0.4,0.6-0.6,1.3-0.6,2c0,0,0,0.1,0,0.1
			c-0.5,2-0.4,4.6,0.9,6.3c0,0,0,0,0,0c0.1,0.2,0.1,0.4,0.2,0.5c0.4,0.7,1.1,1.4,1.9,1.8c4,8-8.4,14.9-13.3,6.9
			c-1.2-1.9-2.3-3.8-3.2-5.9c-0.8,0.3-1.6,0.4-2.6,0.4C373.6,419.1,376.7,397.7,385.3,392.3z"/>
	</g>
	<g>
		<path fill="#70C27C" d="M385.9,402.9c0.2-1.9,0.4-3.9,0.5-5.8c1.8,2.4,3.7,4.8,5.5,7.2c-0.2-0.1-0.3-0.1-0.5-0.2
			c0.7,0.1,1.3,0.2,2,0.3c-0.1,0-0.2,0-0.3,0c0.7-0.1,1.3-0.2,2-0.3c-0.2,0-0.4,0.1-0.5,0.1c0.6-0.3,1.2-0.5,1.8-0.8
			c-0.2,0.1-0.3,0.2-0.5,0.3c0.5-0.4,1-0.8,1.5-1.2c-0.1,0.1-0.3,0.2-0.4,0.4c0.4-0.5,0.8-1,1.2-1.5c-0.1,0.1-0.2,0.3-0.3,0.5
			c0.3-0.6,0.5-1.2,0.8-1.8c-0.1,0.2-0.1,0.3-0.1,0.5c0.1-0.7,0.2-1.3,0.3-2c0,0.1,0,0.2,0,0.3c-0.1-0.7-0.2-1.3-0.3-2
			c0,0.1,0,0.2,0.1,0.3c0.9,3.8-1.2,8.3-5.2,9.2c-3.9,0.9-8.2-1.2-9.2-5.2c-0.8-3.3,0.1-6.7,2.5-9.1c1.2-1.1,2.6-1.9,4.1-2.4
			c1.4-0.4,3.6-0.5,5,0.1c1.6,0.7,2.8,1.3,3.9,2.7c0.9,1.2,1.8,3,1.6,4.5c-0.2,1.9-0.4,3.9-0.5,5.8c-0.2,2-0.7,3.8-2.2,5.3
			c-1.3,1.3-3.4,2.3-5.3,2.2C389.6,410.2,385.5,407.1,385.9,402.9L385.9,402.9z"/>
	</g>
	<path fill="#70C27C" d="M250.6,451c0,0-14.1-54,4.5-97.4s-26.4-12.4-29.8-5.6c-12.7,25.3-17.5,78.3-2.3,113.2
		C225.9,467.8,250.6,451,250.6,451z"/>
	<path fill="#70C27C" d="M194.3,448.2c-1.4-21.8-10.7-43.3,4.5-98.5c15.2-55.2-29.8-3.9-29.8-3.9s-17.5,41.1-3.4,103
		C179.6,510.6,194.8,455.9,194.3,448.2z"/>
	<path fill="#70C27C" d="M113.2,347.4c8.8-34.3,33.6-57.1,27.6,6.2c-3.1,32.4-4.8,38.1-4.9,44.6c-0.8,4.3-0.2,8.7,0.4,13.1
		c0.8,6.8,1.6,13.7,2.5,20.5c0.4,3.1,0.2,9.5,1.8,13.9c0,0.5,0.1,0.9,0.1,1.4c0,0-17.5,81.1-27.6,22.3
		C103.1,410.5,103.1,386.8,113.2,347.4z"/>
	<path fill="#70C27C" d="M86.7,447.9c0,0-9.9-32.4,0-97.3s-22-25.9-28.7-3.3c-8.9,30.1-6.7,81.8-0.1,115.4S86.7,447.9,86.7,447.9z"
		/>
</g>
</svg>
