<?xml version="1.0" encoding="utf-8"?>
<!-- Generator: Adobe Illustrator 18.1.1, SVG Export Plug-In . SVG Version: 6.00 Build 0)  -->
<svg version="1.1" id="Layer_1" xmlns="http://www.w3.org/2000/svg" xmlns:xlink="http://www.w3.org/1999/xlink" x="0px" y="0px"
	 viewBox="0 69.5 612 612" enable-background="new 0 69.5 612 612" xml:space="preserve">
<g>
	<g>
		<g>
			<path fill="#FFFFFF" d="M90.3,242.1c5.3-4.5-11.7,8.7-4.2,3.4c4-3,8.1-5.5,12.1-8.1c5.7-3.6,11.7-6.8,17.6-9.8
				c3.6-1.7,7.2-3.4,10.8-5.1c-14.2,6.4,2.5-0.8,6.1-2.1c9.1-3.2,18.7-5.7,28.2-7.6c2.5-0.4,5.1-0.8,7.6-1.3
				c9.5-1.5-10.4,1.3-0.6,0.2c6.4-0.6,12.9-0.8,19.3-1.1c5.7,0,11.7,0.4,17.4,0.8c10.4,0.8-9.8-1.5,0.6,0c3.2,0.4,6.1,1.1,9.1,1.7
				c6.4,1.3,12.5,3.2,18.7,5.1c3.2,1.1,6.4,2.1,9.5,3.4c4.5,1.7,4.2,1.7-0.4-0.2c2.1,1.1,4.5,1.9,6.6,3
				c29.5,13.8,53.2,36.5,82.5,50.7c29,13.8,59.1,21.6,91.2,23.5c43.9,2.5,88.8-10.8,126.8-32.6c11.7-6.8,23.1-14.6,33.3-23.5
				c17.4-15.3,15.5-44.5,0-60c-17.2-17.2-42.6-15.3-60,0c-1.1,1.1-2.3,1.9-3.4,2.8c15.9-12.5,0.8-0.8-3.6,1.9
				c-5.3,3.6-11,6.8-16.7,9.8c-3.4,1.7-6.8,3.4-10.4,5.1c-2.8,1.3-10.2,4.2,2.5-1.1c-2.8,1.1-5.3,2.1-8.1,3.2
				c-8.9,3.2-17.8,5.7-27.1,7.6c-2.5,0.4-4.9,0.8-7.4,1.3c-9.3,1.5,10.6-1.3,1.1-0.2c-6.1,0.6-12.5,0.8-18.9,1.1
				c-5.7,0-11.2-0.4-17-0.8c-10.2-0.8,10,1.7-0.4,0c-3-0.4-5.9-1.1-8.9-1.7c-6.1-1.3-12.3-3.2-18.4-5.1c-3.2-1.1-6.4-2.1-9.3-3.4
				c-4.5-1.7-4.2-1.7,0.6,0.2c-2.1-1.1-4.2-1.9-6.4-3c-29.3-14-53-36.7-82.5-50.7c-29.5-14-60-21.8-92.6-23.5
				c-45.2-2.5-91.2,11-130.6,32.6c-12.3,6.8-23.7,14.6-34.6,23.5c-17.8,14.8-15.3,44.7,0,60C47.7,259.5,72.5,256.7,90.3,242.1
				L90.3,242.1z"/>
		</g>
	</g>
	<g>
		<g>
			<path fill="#FFFFFF" d="M90.3,409.6c5.3-4.5-11.7,8.7-4.2,3.4c4-3,8.1-5.5,12.1-8.1c5.7-3.6,11.7-6.8,17.6-9.8
				c3.6-1.7,7.2-3.4,10.8-5.1c-14.2,6.4,2.5-0.8,6.1-2.1c9.1-3.2,18.7-5.7,28.2-7.6c2.5-0.4,5.1-0.8,7.6-1.3
				c9.5-1.5-10.4,1.3-0.6,0.2c6.4-0.6,12.9-0.8,19.3-1.1c5.7,0,11.7,0.4,17.4,0.8c10.4,0.8-9.8-1.5,0.6,0c3.2,0.4,6.1,1.1,9.1,1.7
				c6.4,1.3,12.5,3.2,18.7,5.1c3.2,1.1,6.4,2.1,9.5,3.4c4.5,1.7,4.2,1.7-0.4-0.2c2.1,1.1,4.5,1.9,6.6,3
				c29.5,13.8,53.2,36.5,82.5,50.7c29,13.8,59.1,21.6,91.2,23.5c43.9,2.5,88.8-10.8,126.8-32.6c11.7-6.8,23.1-14.6,33.3-23.5
				c17.4-15.3,15.5-44.5,0-60c-17.2-17.2-42.6-15.3-60,0c-1.1,1.1-2.3,1.9-3.4,2.8c15.9-12.5,0.8-0.8-3.6,1.9
				c-5.3,3.6-11,6.8-16.7,9.8c-3.4,1.7-6.8,3.4-10.4,5.1c-2.8,1.3-10.2,4.2,2.5-1.1c-2.8,1.1-5.3,2.1-8.1,3.2
				c-8.9,3.2-17.8,5.7-27.1,7.6c-2.5,0.4-4.9,0.8-7.4,1.3c-9.3,1.5,10.6-1.3,1.1-0.2c-6.1,0.6-12.5,0.8-18.9,1.1
				c-5.7,0-11.2-0.4-17-0.8c-10.2-0.8,10,1.7-0.4,0c-3-0.4-5.9-1.1-8.9-1.7c-6.1-1.3-12.3-3.2-18.4-5.1c-3.2-1.1-6.4-2.1-9.3-3.4
				c-4.5-1.7-4.2-1.7,0.6,0.2c-2.1-1.1-4.2-1.9-6.4-3c-29.3-14-53-36.7-82.5-50.7c-29.5-14-60-21.8-92.6-23.5
				c-45.4-2.5-91.4,11-130.8,32.6c-12.3,6.8-23.7,14.6-34.6,23.5c-17.8,14.8-15.3,44.7,0,60C47.7,427,72.5,424.2,90.3,409.6
				L90.3,409.6z"/>
		</g>
	</g>
	<g>
		<g>
			<path fill="#FFFFFF" d="M90.3,579.2c5.3-4.5-11.7,8.7-4.2,3.4c4-3,8.1-5.5,12.1-8.1c5.7-3.6,11.7-6.8,17.6-9.8
				c3.6-1.7,7.2-3.4,10.8-5.1c-14.2,6.4,2.5-0.8,6.1-2.1c9.1-3.2,18.7-5.7,28.2-7.6c2.5-0.4,5.1-0.8,7.6-1.3
				c9.5-1.5-10.4,1.3-0.6,0.2c6.4-0.6,12.9-0.8,19.3-1.1c5.7,0,11.7,0.4,17.4,0.8c10.4,0.8-9.8-1.5,0.6,0c3.2,0.4,6.1,1.1,9.1,1.7
				c6.4,1.3,12.5,3.2,18.7,5.1c3.2,1.1,6.4,2.1,9.5,3.4c4.5,1.7,4.2,1.7-0.4-0.2c2.1,1.1,4.5,1.9,6.6,3
				c29.5,13.8,53.2,36.5,82.5,50.7c29,13.8,59.1,21.6,91.2,23.5c43.9,2.5,88.8-10.8,126.8-32.6c11.7-6.8,23.1-14.6,33.3-23.5
				c17.4-15.3,15.5-44.5,0-60c-17.2-17.2-42.6-15.3-60,0c-1.1,1.1-2.3,1.9-3.4,2.8c15.9-12.5,0.8-0.8-3.6,1.9
				c-5.3,3.6-11,6.8-16.7,9.8c-3.4,1.7-6.8,3.4-10.4,5.1c-2.8,1.3-10.2,4.2,2.5-1.1c-2.8,1.1-5.3,2.1-8.1,3.2
				c-8.9,3.2-17.8,5.7-27.1,7.6c-2.5,0.4-4.9,0.8-7.4,1.3c-9.3,1.5,10.6-1.3,1.1-0.2c-6.1,0.6-12.5,0.8-18.9,1.1
				c-5.7,0-11.2-0.4-17-0.8c-10.2-0.8,10,1.7-0.4,0c-3-0.4-5.9-1.1-8.9-1.7c-6.1-1.3-12.3-3.2-18.4-5.1c-3.2-1.1-6.4-2.1-9.3-3.4
				c-4.5-1.7-4.2-1.7,0.6,0.2c-2.1-1.1-4.2-1.9-6.4-3c-29.3-14-53-36.7-82.5-50.7c-29.5-14-60-21.8-92.6-23.5
				c-45.4-2.5-91.4,11-130.8,32.6c-12.3,6.8-23.7,14.6-34.6,23.5c-17.8,14.8-15.3,44.7,0,60C47.7,596.5,72.5,593.8,90.3,579.2
				L90.3,579.2z"/>
		</g>
	</g>
</g>
</svg>
