<?xml version="1.0" encoding="utf-8"?>
<!-- Generator: Adobe Illustrator 18.1.1, SVG Export Plug-In . SVG Version: 6.00 Build 0)  -->
<svg version="1.1" id="Layer_1" xmlns="http://www.w3.org/2000/svg" xmlns:xlink="http://www.w3.org/1999/xlink" x="0px" y="0px"
	 viewBox="0 0 500 500" enable-background="new 0 0 500 500" xml:space="preserve">
<g>
	<g>
		<path fill="#EF4723" d="M231.6,278.3c11,28.5,48.3,34.7,68.9,12.3c20.1-21.9,16.9-53.9-1.7-75.5c-17.2-20-46.1-25.6-70.3-15.9
			c-27.2,11-43.9,35.7-46,64.8c-4,55.1,49.2,99.9,102.6,90c14.2-2.6,27.9-9.4,39.9-17.3c12.3-8.1,23.5-18.1,31.1-30.8
			c14.8-24.8,13.4-55.2,7.9-82.5c-3-14.9-7.9-28.9-17.6-40.9c-7.8-9.6-18.1-17.5-28.8-23.4c-20.5-11.4-44.6-16.7-68-15.4
			c-23.4,1.3-47,8.3-66.3,21.7c-21.6,15-36.8,36.2-46,60.7c-18.8,50.2-9.1,116.6,34.7,150.9c21.5,16.8,48.4,27.3,75.1,32.1
			c29,5.2,58.6,3.8,85.7-8.3c24.1-10.8,43-30.3,57.4-52c6.6-10,12.3-20.6,17.4-31.4c6.1-13,12.1-26.4,15.8-40.3
			c7.1-26.5,2.8-56-7-81.3c-9.1-23.6-22.9-45.3-41.1-63c-38.5-37.6-92.2-52.9-145-44.8c-26.3,4.1-51.8,14.8-73,30.9
			c-22.7,17.2-42.2,38.7-58.6,61.9c-8.4,11.9-15.4,24.9-19.7,38.8c-4.6,14.8-5.8,30.8-5,46.3c0.8,15.7,3.3,31.3,5.8,46.7
			c2.2,13.7,4.6,27.5,9.5,40.5c5.2,13.9,12.6,26.2,22.8,37c9.9,10.6,21.7,19.4,33.3,28.2c23.2,17.8,47.8,33.4,76.6,40.2
			c28.7,6.8,59.7,9.2,89,5.3c29.1-3.9,54.6-15.7,77.4-33.8c20.6-16.4,37.9-36.6,54.8-56.6c10.5-12.5,18.8-25.1,23.8-40.7
			c4.7-14.8,7.1-30.3,8.7-45.7c3.1-30.2,2.4-62.1-2.9-92c-5.1-28.9-19.5-53.7-38.4-75.7c-8.7-10.1-18.2-19.4-27.8-28.5
			c-10.4-9.8-21.2-19.4-33-27.6c-24.2-16.7-53-24.6-82-27.6c-53.6-5.7-109.2,5.6-155.4,33.7C95.4,94.3,61.1,131.4,40.9,175
			c-11.6,25-21.4,52.9-16.8,80.7c1.3,8,11.2,12.5,18.5,10.5c8.5-2.3,11.8-10.4,10.5-18.5c-1.9-11.3,1.6-23.9,5.3-35.5
			c1.5-4.6,3.1-9.2,4.9-13.7c0.5-1.4,1.1-2.7,1.6-4c-0.9,2.2,0-0.1,0.2-0.4c1.2-2.6,2.4-5.3,3.7-7.9c4.7-9.6,10.1-18.8,16-27.6
			c1.4-2,2.8-4,4.2-6c0.7-1,1.4-2,2.2-2.9c0.4-0.5,2.3-2.9,0.8-1c3.3-4.2,6.7-8.3,10.3-12.2c7.1-7.9,14.8-15.4,23-22.3
			c1.9-1.6,3.7-3.1,5.6-4.6c3.6-2.9-1.2,0.9,1-0.8c1-0.7,1.9-1.5,2.9-2.2c4.3-3.2,8.7-6.2,13.2-9c9-5.7,18.4-10.8,28.1-15.2
			c0.9-0.4,1.8-0.8,2.7-1.2c4.3-1.9-2.6,1,1.8-0.7c2.3-0.9,4.5-1.8,6.8-2.6c5-1.8,10.1-3.5,15.2-5c24.7-7.1,49.8-9.4,75.6-8.2
			c22.9,1,47,5.8,67.3,16.4c21.3,11.2,38.8,28.6,55.8,46.1c8.2,8.4,16.3,17.6,22.2,26c3.1,4.5,6,9.1,8.7,13.9
			c3.1,5.6,4.8,9.2,6.6,14.3c8.8,24.8,9.2,51.7,8.9,78.1c-0.2,13.3-1,27.2-3.1,39.7c-2,11.9-4.7,25.4-10,35.7
			c-5.5,10.8-13.4,19-21.4,28.3c-7.7,8.9-15.5,17.8-23.8,26.2c-3.8,3.9-7.8,7.7-11.8,11.3c-4.7,4.2-8.8,7.6-12.7,10.4
			c-4.6,3.3-9.3,6.4-14.2,9.2c-2.3,1.3-4.7,2.6-7.1,3.8c-1.5,0.7-2.9,1.4-4.4,2.1c-2.6,1.1,0.5-0.1-2.6,1
			c-24.4,8.8-47.9,10-73.9,7.7c-24.5-2.2-48.5-7.6-69.9-20.2c-10.9-6.4-21.1-13.8-31.1-21.4c-8.4-6.4-18.6-14.3-26.7-22.8
			c-7.4-7.7-13.4-17.2-16.8-26.7c-4.3-12-6.6-24.6-8.6-37.2c-4-24.5-8.6-51.2-2.1-75.3c6-22.3,21.6-41.8,37.1-59.1
			c16.3-18.2,33.1-33.1,55.2-43.5c7.9-3.8,19.2-7.5,29.7-9.7c2.9-0.6,5.8-1.2,8.7-1.6c0.5-0.1,3.9-0.5,1.6-0.2
			c1.6-0.2,3.2-0.4,4.8-0.5c5.8-0.5,11.7-0.8,17.6-0.7c21,0.4,42.8,5.6,61.2,15.4c9.1,4.9,17.6,10.7,23.8,16
			c4.1,3.5,8.1,7.3,11.8,11.2c1.7,1.8,3.4,3.6,5,5.5c0.6,0.7,1.3,1.5,1.9,2.3c0.3,0.4,3.7,4.7,2.3,2.8c6.3,8.3,11.7,17.1,16.3,26.5
			c1.1,2.2,2.1,4.5,3.1,6.7c-1.1-2.7,0.7,1.8,0.7,1.9c0.4,1.1,0.9,2.3,1.3,3.5c1.9,5.3,3.5,10.8,4.8,16.3c0.6,2.4,1.1,4.8,1.5,7.2
			c0.2,1.2,0.4,2.4,0.6,3.6c0.1,0.7,0.5,3.8,0.2,1.1c0.8,6.4,1.2,12.9,0.9,19.3c-0.5,11.9-5.6,24.9-10.4,36.7
			c-0.1,0.2-1.1,2.6-0.3,0.7c-0.6,1.4-1.2,2.9-1.9,4.3c-1.1,2.4-2.1,4.8-3.3,7.1c-2.5,5.2-5.1,10.3-7.8,15.3
			c-2.6,4.8-5.5,9.5-8.5,14c-1.6,2.4-3.2,4.7-4.9,7c-0.6,0.8-1.2,1.7-1.8,2.5c1.2-1.6-2.1,2.6-2.5,3c-14.5,17.2-30.2,28.5-51.7,33.8
			c-10.5,2.6-20.5,3.3-32.6,2.7c-6.1-0.3-10.7-0.8-15.4-1.7c-6.4-1.1-12.8-2.6-19.1-4.4c-11.5-3.3-20.5-6.8-30.2-11.9
			c-11-5.8-18.4-11.1-26.6-20.3c-13.5-15.3-20.4-38.9-21.5-58.5c-0.3-5.5-0.3-11.1,0.1-16.6c0.4-6.6,0.6-8.3,2-14.8
			c2.3-11.3,5.6-20.8,10.2-29.7c5.4-10.4,10.1-16.9,18.1-24.8c1.6-1.6,3.3-3.1,5-4.6c0.2-0.2,3.7-3,1.2-1.1c0.7-0.5,1.5-1.1,2.2-1.6
			c4.2-3,8.7-5.7,13.3-8.1c1-0.5,2-1,3-1.5c0.3-0.1,4.4-2,1.4-0.7c2.1-0.9,4.2-1.7,6.4-2.4c4.7-1.6,9.6-3,14.5-4
			c2.2-0.5,4.5-0.8,6.7-1.2c-3.5,0.5,1-0.1,1.4-0.1c0.9-0.1,1.8-0.2,2.7-0.2c5.2-0.4,10.5-0.5,15.7-0.2c2.5,0.1,5,0.4,7.5,0.7
			c-0.6-0.1-2.9-0.5,0.1,0c1.3,0.2,2.7,0.4,4,0.7c4.9,0.9,9.7,2.2,14.5,3.8c2.1,0.7,4.3,1.5,6.4,2.4c-3-1.3,1.1,0.5,1.4,0.7
			c0.8,0.4,1.6,0.8,2.4,1.2c4.7,2.4,9.1,5.1,13.4,8.1c0.4,0.3,2.7,2.1,1,0.8c1.3,1.1,2.6,2.1,3.9,3.3c2.1,1.9,4.1,3.8,5.9,5.9
			c2.9,3.2,6,8.5,7.3,12.1c1.9,5.4,3.3,10.9,4.5,16.5c1.2,5.8,2.1,11.3,2.5,15.4c0.6,6,0.8,12,0.6,18c-0.1,1.1-0.1,2.2-0.2,3.2
			c0-0.1-0.6,5.2-0.2,2.4c-0.4,3.2-1.1,6.3-2,9.4c-2.7,9.9-7.5,17.3-15.5,24.7c-7.1,6.6-18.9,13.9-27.9,17.7
			c-5.3,2.2-11,3.8-16.7,4.7c3.2-0.5-1.4,0.1-1.7,0.1c-0.9,0.1-1.9,0.1-2.8,0.1c-2.8,0.1-5.7-0.1-8.5-0.4c3.3,0.3-1.3-0.2-1.6-0.3
			c-1.2-0.2-2.3-0.5-3.5-0.8c-2.5-0.6-5-1.4-7.5-2.3c-0.9-0.3-1.8-0.7-2.7-1c2.8,1.2-1.4-0.8-1.6-0.8c-2.6-1.3-5.1-2.7-7.5-4.3
			c-0.8-0.5-1.6-1.1-2.4-1.6c-3.8-2.4,1.9,1.8-1.5-1.1c-1.8-1.5-3.6-3.1-5.3-4.8c-1.7-1.7-3.3-3.5-4.8-5.3c-2.9-3.4,1.3,2.2-1.1-1.5
			c-0.8-1.2-1.6-2.4-2.4-3.6c-1.4-2.2-2.6-4.6-3.7-6.9c-1.1-2.4,1,3.3-0.6-1.5c-0.5-1.5-1-3-1.5-4.5c-0.7-2.5-1.3-5.1-1.8-7.7
			c-0.6-3.1-0.2-1.4-0.1-0.7c-0.2-2.1-0.4-4.2-0.4-6.3c0-2.6,0.1-5.3,0.3-7.9c0.4-4.9-0.3,1.4,0.2-1.5c0.2-1.3,0.5-2.6,0.8-3.8
			c1.5-6.3,2.3-8.3,5.7-13.7c2.4-3.9,4.3-5.9,9-10.1c0.3-0.3,2.3-1.7,0.4-0.3c1.2-0.8,2.4-1.6,3.6-2.4c0.8-0.5,1.7-1,2.5-1.4
			c0.5-0.3,5.5-2.5,2.9-1.5c2.2-0.9,4.5-1.6,6.8-2.2c1.2-0.3,2.3-0.5,3.5-0.7c2.6-0.5-3.5,0.1,1-0.1c2.4-0.1,4.7-0.1,7.1-0.1
			c4.4,0.1-2.6-0.7,1.7,0.2c1.4,0.3,2.8,0.6,4.2,1c1.3,0.4,2.7,0.8,4,1.4c-2.5-1.1,0.3,0.3,0.9,0.6c1,0.6,2,1.1,3,1.8
			c0.2,0.1,3.8,2.9,1.5,1c1.8,1.5,3.5,3.1,5.1,4.9c0.6,0.7,1.3,1.4,1.8,2.1c-1.7-2.2,1.4,2.3,1.7,2.7c4.3,7.3,5.5,13.5,3.5,20.8
			c0,0.2-1.6,4.6-0.5,1.9c-0.4,0.9-0.8,1.8-1.3,2.6c-0.7,1.3-1.5,2.5-2.3,3.7c1.5-2-0.4,0.4-0.9,0.8c-0.8,0.9-1.7,1.7-2.6,2.4
			c2.3-1.8-1.5,0.8-1.6,0.9c-2.1,1.4-1.1,0.6-0.3,0.3c-1.3,0.5-2.6,0.8-3.9,1.1c3-0.7,0.5,0-0.5-0.1c-1.1-0.1-2.2,0-3.2-0.1
			c4.4,0.5-4.7-2.1-1.1-0.4c-1.2-0.6-2.2-1.2-3.3-1.9c2.2,1.3,0.6,0.6,0,0c-0.5-0.5-2.6-3.5-0.9-0.8c-0.3-0.5-2-4.1-0.8-1
			c-2.9-7.6-10.1-12.8-18.5-10.5C234.9,261.9,228.7,270.8,231.6,278.3L231.6,278.3z"/>
	</g>
</g>
</svg>
